<svg xmlns="http://www.w3.org/2000/svg" viewBox="0 0 32 32">
  <defs>
    <linearGradient id="bg" x1="0%" y1="0%" x2="100%" y2="100%">
      <stop offset="0%" stop-color="#FF8C42" />
      <stop offset="100%" stop-color="#FF6B8A" />
    </linearGradient>
  </defs>
  
  <circle cx="15" cy="17" r="14" fill="url(#bg)" />

  <svg x="5" y="7" width="20" height="20" viewBox="0 0 24 24" fill="none">
    <path
      d="M3 5.5C3 4.67 3.67 4 4.5 4H10a2 2 0 0 1 2 2v13a1.5 1.5 0 0 0-1.5-1.5H4.5A1.5 1.5 0 0 1 3 16V5.5Z"
      fill="white"
      fill-opacity="0.95"
    />
    <path
      d="M21 5.5C21 4.67 20.33 4 19.5 4H14a2 2 0 0 0-2 2v13a1.5 1.5 0 0 1 1.5-1.5h6A1.5 1.5 0 0 0 21 16V5.5Z"
      fill="white"
      fill-opacity="0.8"
    />
  </svg>

  <circle cx="27" cy="5" r="3.5" fill="#6BCB77" />
</svg>
